<svg xmlns="http://www.w3.org/2000/svg" viewBox="0 0 1584 396" width="1584" height="396">
  <style>@import url('https://fonts.googleapis.com/css2?family=Fraunces:opsz,wght@9..144,700&family=Inter:wght@400;500;600&display=swap');</style>
  <defs>
    <radialGradient id="glow" cx="0.5" cy="-0.13" r="1.1">
      <stop offset="0%" stop-color="#3a2208"/><stop offset="100%" stop-color="#0d0a08"/>
    </radialGradient>
    <radialGradient id="rim" cx="0.07" cy="0.38" r="0.6">
      <stop offset="0%" stop-color="#1d1a38" stop-opacity="0.7"/><stop offset="100%" stop-color="#1d1a38" stop-opacity="0"/>
    </radialGradient>
    
  
    <linearGradient id="tile" x1="0.33" y1="0" x2="0.67" y2="1">
      <stop offset="0%" stop-color="#f5d28a"/>
      <stop offset="60%" stop-color="#e6b45c"/>
      <stop offset="100%" stop-color="#c98f2f"/>
    </linearGradient>
  
  </defs>
  <rect width="1584" height="396" fill="url(#glow)"/>
  <rect width="1584" height="396" fill="url(#rim)"/>
  <g transform="translate(744.3,63.4) scale(0.18636160714285713)">
    <rect width="512" height="512" rx="120" fill="url(#tile)"/>
  <rect width="512" height="256" rx="120" fill="#ffffff" opacity="0.08"/>
    
    <rect x="104" y="128" width="304" height="64" rx="20" fill="#241a08"/>
    <rect x="224" y="176" width="64" height="224" rx="20" fill="#241a08"/>
    <rect x="238" y="228" width="36" height="6" rx="3" fill="#f5d28a" opacity="0.7"/>
    <rect x="238" y="356" width="36" height="6" rx="3" fill="#f5d28a" opacity="0.7"/>
    <rect x="136" y="142" width="6" height="36" rx="3" fill="#f5d28a" opacity="0.7"/>
    <rect x="364" y="142" width="6" height="36" rx="3" fill="#f5d28a" opacity="0.7"/>
  </g>
  <text x="792" y="228" text-anchor="middle" font-family="Fraunces, Georgia, 'Times New Roman', serif" font-weight="700" font-size="67" fill="#f3eef7">Tokenary</text>
  <text x="792" y="260" text-anchor="middle" font-family="Inter, system-ui, sans-serif" font-weight="500" font-size="16" letter-spacing="1.4" fill="#b8a894">THE AI ENGINEERING DICTIONARY</text>
  <rect x="450.8" y="281.7" width="41.9" height="92.5" rx="5.06" fill="rgb(155,76,65)"/>
<rect x="450.8" y="281.7" width="2.9" height="92.5" rx="1.4457142857142855" fill="#ff7a6b" opacity="0.45"/>
<rect x="456.6" y="293.3" width="30.4" height="2.168571428571428" rx="0.7228571428571428" fill="#f5d28a" opacity="0.5"/>
<rect x="465.3" y="309.2" width="13.011428571428569" height="37.58857142857142" rx="2.891428571428571" fill="#e6b45c" opacity="0.4"/>
<rect x="456.6" y="355.4" width="30.4" height="2.168571428571428" rx="0.7228571428571428" fill="#f5d28a" opacity="0.32"/>
<rect x="500.0" y="299.0" width="50.6" height="75.2" rx="5.06" fill="rgb(150,120,55)"/>
<rect x="500.0" y="299.0" width="2.9" height="75.2" rx="1.4457142857142855" fill="#f5c65a" opacity="0.45"/>
<rect x="505.7" y="310.6" width="39.0" height="2.168571428571428" rx="0.7228571428571428" fill="#f5d28a" opacity="0.5"/>
<rect x="518.8" y="317.8" width="13.011428571428569" height="37.58857142857142" rx="2.891428571428571" fill="#e6b45c" opacity="0.4"/>
<rect x="505.7" y="355.4" width="39.0" height="2.168571428571428" rx="0.7228571428571428" fill="#f5d28a" opacity="0.32"/>
<rect x="557.8" y="268.7" width="37.6" height="105.5" rx="5.06" fill="rgb(91,128,58)"/>
<rect x="557.8" y="268.7" width="2.9" height="105.5" rx="1.4457142857142855" fill="#8fd460" opacity="0.45"/>
<rect x="563.6" y="280.2" width="26.0" height="2.168571428571428" rx="0.7228571428571428" fill="#f5d28a" opacity="0.5"/>
<rect x="570.1" y="302.7" width="13.011428571428569" height="37.58857142857142" rx="2.891428571428571" fill="#e6b45c" opacity="0.4"/>
<rect x="563.6" y="355.4" width="26.0" height="2.168571428571428" rx="0.7228571428571428" fill="#f5d28a" opacity="0.32"/>
<rect x="602.6" y="288.9" width="46.3" height="85.3" rx="5.06" fill="rgb(55,121,105)"/>
<rect x="602.6" y="288.9" width="2.9" height="85.3" rx="1.4457142857142855" fill="#52c8b0" opacity="0.45"/>
<rect x="608.4" y="300.5" width="34.7" height="2.168571428571428" rx="0.7228571428571428" fill="#f5d28a" opacity="0.5"/>
<rect x="619.2" y="312.8" width="13.011428571428569" height="37.58857142857142" rx="2.891428571428571" fill="#e6b45c" opacity="0.4"/>
<rect x="608.4" y="355.4" width="34.7" height="2.168571428571428" rx="0.7228571428571428" fill="#f5d28a" opacity="0.32"/>
<rect x="656.1" y="275.9" width="54.9" height="98.3" rx="5.06" fill="rgb(71,102,150)"/>
<rect x="656.1" y="275.9" width="2.9" height="98.3" rx="1.4457142857142855" fill="#6ea8fe" opacity="0.45"/>
<rect x="661.9" y="287.5" width="43.4" height="2.168571428571428" rx="0.7228571428571428" fill="#f5d28a" opacity="0.5"/>
<rect x="677.1" y="306.3" width="13.011428571428569" height="37.58857142857142" rx="2.891428571428571" fill="#e6b45c" opacity="0.4"/>
<rect x="661.9" y="355.4" width="43.4" height="2.168571428571428" rx="0.7228571428571428" fill="#f5d28a" opacity="0.32"/>
<rect x="718.3" y="304.8" width="40.5" height="69.4" rx="5.06" fill="rgb(100,77,150)"/>
<rect x="718.3" y="304.8" width="2.9" height="69.4" rx="1.4457142857142855" fill="#9f7cff" opacity="0.45"/>
<rect x="724.1" y="316.4" width="28.9" height="2.168571428571428" rx="0.7228571428571428" fill="#f5d28a" opacity="0.5"/>
<rect x="732.0" y="320.7" width="13.011428571428569" height="37.58857142857142" rx="2.891428571428571" fill="#e6b45c" opacity="0.4"/>
<rect x="724.1" y="355.4" width="28.9" height="2.168571428571428" rx="0.7228571428571428" fill="#f5d28a" opacity="0.32"/>
<rect x="766.0" y="264.3" width="49.2" height="109.9" rx="5.06" fill="rgb(146,69,115)"/>
<rect x="766.0" y="264.3" width="2.9" height="109.9" rx="1.4457142857142855" fill="#ef6fc2" opacity="0.45"/>
<rect x="771.8" y="275.9" width="37.6" height="2.168571428571428" rx="0.7228571428571428" fill="#f5d28a" opacity="0.5"/>
<rect x="784.0" y="300.5" width="13.011428571428569" height="37.58857142857142" rx="2.891428571428571" fill="#e6b45c" opacity="0.4"/>
<rect x="771.8" y="355.4" width="37.6" height="2.168571428571428" rx="0.7228571428571428" fill="#f5d28a" opacity="0.32"/>
<rect x="822.4" y="286.0" width="43.4" height="88.2" rx="5.06" fill="rgb(155,76,65)"/>
<rect x="822.4" y="286.0" width="2.9" height="88.2" rx="1.4457142857142855" fill="#ff7a6b" opacity="0.45"/>
<rect x="828.1" y="297.6" width="31.8" height="2.168571428571428" rx="0.7228571428571428" fill="#f5d28a" opacity="0.5"/>
<rect x="837.5" y="311.3" width="13.011428571428569" height="37.58857142857142" rx="2.891428571428571" fill="#e6b45c" opacity="0.4"/>
<rect x="828.1" y="355.4" width="31.8" height="2.168571428571428" rx="0.7228571428571428" fill="#f5d28a" opacity="0.32"/>
<rect x="873.0" y="294.7" width="52.0" height="79.5" rx="5.06" fill="rgb(150,120,55)"/>
<rect x="873.0" y="294.7" width="2.9" height="79.5" rx="1.4457142857142855" fill="#f5c65a" opacity="0.45"/>
<rect x="878.7" y="306.3" width="40.5" height="2.168571428571428" rx="0.7228571428571428" fill="#f5d28a" opacity="0.5"/>
<rect x="892.5" y="315.7" width="13.011428571428569" height="37.58857142857142" rx="2.891428571428571" fill="#e6b45c" opacity="0.4"/>
<rect x="878.7" y="355.4" width="40.5" height="2.168571428571428" rx="0.7228571428571428" fill="#f5d28a" opacity="0.32"/>
<rect x="932.2" y="273.0" width="39.0" height="101.2" rx="5.06" fill="rgb(91,128,58)"/>
<rect x="932.2" y="273.0" width="2.9" height="101.2" rx="1.4457142857142855" fill="#8fd460" opacity="0.45"/>
<rect x="938.0" y="284.6" width="27.5" height="2.168571428571428" rx="0.7228571428571428" fill="#f5d28a" opacity="0.5"/>
<rect x="945.2" y="304.8" width="13.011428571428569" height="37.58857142857142" rx="2.891428571428571" fill="#e6b45c" opacity="0.4"/>
<rect x="938.0" y="355.4" width="27.5" height="2.168571428571428" rx="0.7228571428571428" fill="#f5d28a" opacity="0.32"/>
<rect x="978.5" y="301.9" width="47.7" height="72.3" rx="5.06" fill="rgb(55,121,105)"/>
<rect x="978.5" y="301.9" width="2.9" height="72.3" rx="1.4457142857142855" fill="#52c8b0" opacity="0.45"/>
<rect x="984.3" y="313.5" width="36.1" height="2.168571428571428" rx="0.7228571428571428" fill="#f5d28a" opacity="0.5"/>
<rect x="995.8" y="319.3" width="13.011428571428569" height="37.58857142857142" rx="2.891428571428571" fill="#e6b45c" opacity="0.4"/>
<rect x="984.3" y="355.4" width="36.1" height="2.168571428571428" rx="0.7228571428571428" fill="#f5d28a" opacity="0.32"/>
<rect x="1033.4" y="280.2" width="41.9" height="94.0" rx="5.06" fill="rgb(71,102,150)"/>
<rect x="1033.4" y="280.2" width="2.9" height="94.0" rx="1.4457142857142855" fill="#6ea8fe" opacity="0.45"/>
<rect x="1039.2" y="291.8" width="30.4" height="2.168571428571428" rx="0.7228571428571428" fill="#f5d28a" opacity="0.5"/>
<rect x="1047.9" y="308.4" width="13.011428571428569" height="37.58857142857142" rx="2.891428571428571" fill="#e6b45c" opacity="0.4"/>
<rect x="1039.2" y="355.4" width="30.4" height="2.168571428571428" rx="0.7228571428571428" fill="#f5d28a" opacity="0.32"/>
<rect x="1082.6" y="290.4" width="50.6" height="83.9" rx="5.06" fill="rgb(100,77,150)"/>
<rect x="1082.6" y="290.4" width="2.9" height="83.9" rx="1.4457142857142855" fill="#9f7cff" opacity="0.45"/>
<rect x="1088.4" y="301.9" width="39.0" height="2.168571428571428" rx="0.7228571428571428" fill="#f5d28a" opacity="0.5"/>
<rect x="1101.4" y="313.5" width="13.011428571428569" height="37.58857142857142" rx="2.891428571428571" fill="#e6b45c" opacity="0.4"/>
<rect x="1088.4" y="355.4" width="39.0" height="2.168571428571428" rx="0.7228571428571428" fill="#f5d28a" opacity="0.32"/>

  <text x="1564" y="34" text-anchor="end" font-family="Inter, system-ui, sans-serif" font-weight="500" font-size="11" fill="#7a6f60">tokenary.netlify.app</text>
</svg>
